<svg viewBox="0 0 440 260" preserveAspectRatio="xMidYMid meet" xmlns="http://www.w3.org/2000/svg">
  <defs>
    <linearGradient id="rotsLine" x1="0%" y1="0%" x2="100%" y2="0%">
      <stop offset="0%" stop-color="#2a7a4e"/>
      <stop offset="18%" stop-color="#2a7a4e"/>
      <stop offset="22%" stop-color="#c0392b"/>
      <stop offset="48%" stop-color="#c0392b"/>
      <stop offset="52%" stop-color="#b87a14"/>
      <stop offset="70%" stop-color="#b87a14"/>
      <stop offset="75%" stop-color="#2a7a4e"/>
      <stop offset="100%" stop-color="#2a7a4e"/>
    </linearGradient>
    <linearGradient id="rotsArea" x1="0%" y1="0%" x2="0%" y2="100%">
      <stop offset="0%" stop-color="#2a7a4e" stop-opacity="0.15"/>
      <stop offset="40%" stop-color="#c0392b" stop-opacity="0.10"/>
      <stop offset="60%" stop-color="#b87a14" stop-opacity="0.10"/>
      <stop offset="100%" stop-color="#2a7a4e" stop-opacity="0.15"/>
    </linearGradient>
  </defs>

  <rect x="10" y="30" width="75" height="180" rx="6" fill="#e8f5ee" opacity="0.18"/>
  <rect x="90" y="30" width="110" height="180" rx="6" fill="#fdecea" opacity="0.12"/>
  <rect x="205" y="30" width="85" height="180" rx="6" fill="#fff3e0" opacity="0.15"/>
  <rect x="295" y="30" width="95" height="180" rx="6" fill="#e8f5ee" opacity="0.18"/>

  <text x="220" y="256" text-anchor="middle" font-size="13" font-weight="600" fill="#717171" font-family="'Plus Jakarta Sans',sans-serif">Time / AI Maturity →</text>
  <text x="8" y="130" text-anchor="middle" font-size="13" font-weight="600" fill="#717171" font-family="'Plus Jakarta Sans',sans-serif" transform="rotate(-90 8 130)">Return on Token Spend →</text>

  <line x1="35" y1="130" x2="425" y2="130" stroke="#484848" stroke-width="1.5" stroke-dasharray="5 4"/>
  <text x="22" y="133" font-size="14" font-weight="700" fill="#484848" font-family="'Plus Jakarta Sans',sans-serif">0</text>

  <path id="rotsCurvePath" d="M 40 115 C 55 108, 70 112, 85 125 C 100 145, 115 185, 140 195 C 165 205, 185 190, 205 160 C 225 130, 245 100, 275 75 C 305 50, 340 38, 420 32" fill="none" stroke="url(#rotsLine)" stroke-width="3.5" stroke-linecap="round" stroke-linejoin="round"/>

  <path d="M 40 115 C 55 108, 70 112, 85 125 C 100 145, 115 185, 140 195 C 165 205, 185 190, 205 160 C 225 130, 245 100, 275 75 C 305 50, 340 38, 420 32 L 420 130 L 40 130 Z" fill="url(#rotsArea)" opacity="0.4"/>

  <polygon points="420,32 414,37 414,33 408,34 408,30 414,31 414,27" fill="#2a7a4e"/>

  <rect x="22" y="14" width="56" height="18" rx="9" fill="#2a7a4e" opacity="0.12"/>
  <text x="50" y="26" text-anchor="middle" font-size="14" font-weight="700" fill="#2a7a4e" font-family="'Plus Jakarta Sans',sans-serif">Quick Wins</text>

  <rect x="72" y="220" width="70" height="18" rx="9" fill="#c0392b" opacity="0.12"/>
  <text x="107" y="232" text-anchor="middle" font-size="14" font-weight="700" fill="#c0392b" font-family="'Plus Jakarta Sans',sans-serif">Valley of Death</text>

  <rect x="210" y="220" width="75" height="18" rx="9" fill="#b87a14" opacity="0.12"/>
  <text x="247" y="232" text-anchor="middle" font-size="14" font-weight="700" fill="#b87a14" font-family="'Plus Jakarta Sans',sans-serif">Breaking Even</text>

  <rect x="355" y="14" width="58" height="18" rx="9" fill="#2a7a4e" opacity="0.12"/>
  <text x="384" y="26" text-anchor="middle" font-size="14" font-weight="700" fill="#2a7a4e" font-family="'Plus Jakarta Sans',sans-serif">Flywheel</text>

  <text x="140" y="102" text-anchor="middle" font-size="14" font-weight="700" fill="#c0392b" font-family="'Plus Jakarta Sans',sans-serif">Most companies quit here</text>
  <line x1="140" y1="108" x2="140" y2="188" stroke="#c0392b" stroke-width="1.5" stroke-dasharray="4 3"/>
  <polygon points="140,194 136,186 144,186" fill="#c0392b"/>
</svg>
